<svg xmlns="http://www.w3.org/2000/svg" viewBox="0 0 112.18 102.62"  fill="#bfbfbf" xmlns:v="https://vecta.io/nano"><path d="M20.89 72.54L19.46 74 18 72.54l-2.55 2.55 1.43 1.43-1.43 1.42L18 80.49l1.42-1.43 1.43 1.43 2.55-2.55-1.4-1.42 1.43-1.43zm86.58 3.08a16 16 0 0 0-13 6.69l-.92-2.21A42 42 0 0 0 54.57 54h-1.11L53 55l-3.14 6.28c-.62 0-1.22-.08-1.84-.08H39A50.22 50.22 0 0 0 5.31 74.14L0 78.92l.86 1.3a50.23 50.23 0 0 0 41.87 22.4h7.16a76.58 76.58 0 0 0 43.6-13.53 16 16 0 0 0 14 8.13 4.71 4.71 0 0 0 4.71-4.71V80.32a4.71 4.71 0 0 0-4.71-4.7zM89.75 80.5l-4.2-3.41 1.12-2.23a38.31 38.31 0 0 1 3.08 5.64zm-5.47-8.9l-1.59 3.16-2.75-2.23-1.46-1.09 1.94-3.88a38.88 38.88 0 0 1 3.86 4zm-28.6-14a38.36 38.36 0 0 1 5.59.56l-2.15 4.34a47.17 47.17 0 0 0-5.42-.92zm9.2 1.4a39.5 39.5 0 0 1 5 1.76l-2.22 4.44a51 51 0 0 0-5-1.78zm8.23 3.34a39.15 39.15 0 0 1 4.45 2.86l-2.06 4.15a51.72 51.72 0 0 0-4.57-2.61zM49.89 99h-7.16a47.29 47.29 0 0 1-8.94-.87l1.4-2.34a22.32 22.32 0 0 0 2.61-6.48 14.55 14.55 0 0 0 14.5-3.5l7.11-7.11-9.82-4.91a17.38 17.38 0 0 0-15.25 0l-1.78.89 1.25 3.73a18.85 18.85 0 0 1 1 5.91A18.62 18.62 0 0 1 32.1 94l-2 3.31A46.55 46.55 0 0 1 4.74 79.5l3-2.69a46.63 46.63 0 0 1 31.26-12h9a47.24 47.24 0 0 1 29.67 10.51l13.53 11A73 73 0 0 1 49.89 99zM37.22 77.29l-.22-.72A13.64 13.64 0 0 1 48 77l5.35 2.67-3.58 3.58a10.87 10.87 0 0 1-10.94 2.58l-.48-.16V84.3l-.08-1.83L45.92 81l-.71-3.53L37.7 79l-.48-1.66zm71.36 15.22a1.11 1.11 0 0 1-1.11 1.11 12.45 12.45 0 0 1-11.33-7.2 12.45 12.45 0 0 1 11.33-7.2 1.11 1.11 0 0 1 1.11 1.1zm.75-67.3l.46-.47a8.17 8.17 0 0 0-11.55-11.55l-3 3H78.58l-.58-.4A79.42 79.42 0 0 0 30.65 0h-4.88a25.21 25.21 0 1 0 0 50.41h4.88A79.48 79.48 0 0 0 78 34.62l.55-.41h16.68l3 3a8.17 8.17 0 0 0 11.55-11.55zm-78.68 21.6h-4.88a21.61 21.61 0 1 1 0-43.21h4.88a75.84 75.84 0 0 1 45.22 15.07l.31.23v12.61l-.31.23a75.84 75.84 0 0 1-45.22 15.07zm76.6-18.6a4.57 4.57 0 1 1-6.46 6.46l-4.07-4.06H79.78V19.8h16.94l4.07-4.06a4.564 4.564 0 0 1 6.46 6.45l-3 3zM38.37 10.8H42v3.6h-3.6zm-7.2 23.41h3.6v3.6h-3.6zm-5.4-19.81h3.6V18h-3.6zm-7.21-3.6h3.6v3.6h-3.6zM51 25.21h3.6v3.6H51z"/></svg>